solid STL file created by Vectorworks 2017 SP5 (Build 402127) (64-Bit)
 facet normal 1.00000000000000 0.00000000000000 0.00000000000000
  outer loop
   vertex 2578.10000000000040 -3.17499999999999 -156.89488245410337
   vertex 2578.10000000000040 -3.17499999999999 -164.63394495410347
   vertex 2578.10000000000040 -0.00000000000001 -164.63394495410344
  endloop
 endfacet
 facet normal 1.00000000000000 0.00000000000000 -0.00000000000000
  outer loop
   vertex 2578.10000000000040 -0.00000000000001 -164.63394495410344
   vertex 2578.10000000000040 -0.00000000000001 -156.89488245410340
   vertex 2578.10000000000040 -3.17499999999999 -156.89488245410337
  endloop
 endfacet
 facet normal 0.00000000000000 0.00000000000000 1.00000000000000
  outer loop
   vertex 2552.70000000000030 -3.17499999999999 -156.89488245410340
   vertex 2578.10000000000040 -3.17499999999999 -156.89488245410340
   vertex 2578.10000000000040 -0.00000000000001 -156.89488245410340
  endloop
 endfacet
 facet normal 0.00000000000000 0.00000000000000 1.00000000000000
  outer loop
   vertex 2578.10000000000040 -0.00000000000001 -156.89488245410340
   vertex 2552.70000000000030 -0.00000000000001 -156.89488245410340
   vertex 2552.70000000000030 -3.17499999999999 -156.89488245410340
  endloop
 endfacet
 facet normal 0.17364817766696 0.00000000000000 -0.98480775301220
  outer loop
   vertex 2551.00325944522090 -0.00000000000001 -147.27218859317367
   vertex 2552.70000000000030 -0.00000000000001 -146.97300745410377
   vertex 2552.70000000000030 -3.17499999999999 -146.97300745410377
  endloop
 endfacet
 facet normal 0.50000000000000 0.00000000000000 -0.86602540378444
  outer loop
   vertex 2549.51117084257160 -0.00000000000001 -148.13364634956804
   vertex 2551.00325944522090 -0.00000000000001 -147.27218859317367
   vertex 2551.00325944522090 -3.17499999999999 -147.27218859317367
  endloop
 endfacet
 facet normal 0.76604444311903 0.00000000000000 -0.64278760968648
  outer loop
   vertex 2548.40370209841420 -0.00000000000001 -149.45347620410357
   vertex 2549.51117084257160 -0.00000000000001 -148.13364634956804
   vertex 2549.51117084257160 -3.17499999999999 -148.13364634956804
  endloop
 endfacet
 facet normal 0.93969262078585 0.00000000000000 -0.34202014332584
  outer loop
   vertex 2547.81443028779180 -0.00000000000001 -151.07248719770897
   vertex 2548.40370209841420 -0.00000000000001 -149.45347620410357
   vertex 2548.40370209841420 -3.17499999999999 -149.45347620410357
  endloop
 endfacet
 facet normal 1.00000000000000 0.00000000000000 -0.00000000000000
  outer loop
   vertex 2547.81443028779180 -0.00000000000001 -152.79540271049802
   vertex 2547.81443028779180 -0.00000000000001 -151.07248719770897
   vertex 2547.81443028779180 -3.17499999999999 -151.07248719770897
  endloop
 endfacet
 facet normal 0.93969262078585 0.00000000000000 0.34202014332584
  outer loop
   vertex 2548.40370209841420 -0.00000000000001 -154.41441370410345
   vertex 2547.81443028779180 -0.00000000000001 -152.79540271049802
   vertex 2547.81443028779180 -3.17499999999999 -152.79540271049802
  endloop
 endfacet
 facet normal 0.76604444311903 0.00000000000000 0.64278760968648
  outer loop
   vertex 2549.51117084257160 -0.00000000000001 -155.73424355863898
   vertex 2548.40370209841420 -0.00000000000001 -154.41441370410345
   vertex 2548.40370209841420 -3.17499999999999 -154.41441370410345
  endloop
 endfacet
 facet normal 0.49999999999999 -0.00000000000000 0.86602540378445
  outer loop
   vertex 2551.00325944522090 -0.00000000000001 -156.59570131503332
   vertex 2549.51117084257160 -0.00000000000001 -155.73424355863898
   vertex 2549.51117084257160 -3.17499999999999 -155.73424355863898
  endloop
 endfacet
 facet normal 0.17364817766698 0.00000000000000 0.98480775301220
  outer loop
   vertex 2552.70000000000030 -0.00000000000001 -156.89488245410325
   vertex 2551.00325944522090 -0.00000000000001 -156.59570131503332
   vertex 2551.00325944522090 -3.17499999999999 -156.59570131503332
  endloop
 endfacet
 facet normal 0.17364817766698 0.00000000000000 0.98480775301220
  outer loop
   vertex 2551.00325944522090 -3.17499999999999 -156.59570131503332
   vertex 2552.70000000000030 -3.17499999999999 -156.89488245410325
   vertex 2552.70000000000030 -0.00000000000001 -156.89488245410325
  endloop
 endfacet
 facet normal 0.49999999999999 -0.00000000000000 0.86602540378445
  outer loop
   vertex 2549.51117084257160 -3.17499999999999 -155.73424355863898
   vertex 2551.00325944522090 -3.17499999999999 -156.59570131503332
   vertex 2551.00325944522090 -0.00000000000001 -156.59570131503332
  endloop
 endfacet
 facet normal 0.76604444311903 0.00000000000000 0.64278760968648
  outer loop
   vertex 2548.40370209841420 -3.17499999999999 -154.41441370410345
   vertex 2549.51117084257160 -3.17499999999999 -155.73424355863898
   vertex 2549.51117084257160 -0.00000000000001 -155.73424355863898
  endloop
 endfacet
 facet normal 0.93969262078585 0.00000000000000 0.34202014332584
  outer loop
   vertex 2547.81443028779180 -3.17499999999999 -152.79540271049802
   vertex 2548.40370209841420 -3.17499999999999 -154.41441370410345
   vertex 2548.40370209841420 -0.00000000000001 -154.41441370410345
  endloop
 endfacet
 facet normal 1.00000000000000 0.00000000000000 0.00000000000000
  outer loop
   vertex 2547.81443028779180 -3.17499999999999 -151.07248719770897
   vertex 2547.81443028779180 -3.17499999999999 -152.79540271049802
   vertex 2547.81443028779180 -0.00000000000001 -152.79540271049802
  endloop
 endfacet
 facet normal 0.93969262078585 0.00000000000000 -0.34202014332584
  outer loop
   vertex 2548.40370209841420 -3.17499999999999 -149.45347620410357
   vertex 2547.81443028779180 -3.17499999999999 -151.07248719770897
   vertex 2547.81443028779180 -0.00000000000001 -151.07248719770897
  endloop
 endfacet
 facet normal 0.76604444311903 0.00000000000000 -0.64278760968648
  outer loop
   vertex 2549.51117084257160 -3.17499999999999 -148.13364634956804
   vertex 2548.40370209841420 -3.17499999999999 -149.45347620410357
   vertex 2548.40370209841420 -0.00000000000001 -149.45347620410357
  endloop
 endfacet
 facet normal 0.50000000000000 0.00000000000000 -0.86602540378444
  outer loop
   vertex 2551.00325944522090 -3.17499999999999 -147.27218859317367
   vertex 2549.51117084257160 -3.17499999999999 -148.13364634956804
   vertex 2549.51117084257160 -0.00000000000001 -148.13364634956804
  endloop
 endfacet
 facet normal 0.17364817766696 0.00000000000000 -0.98480775301220
  outer loop
   vertex 2552.70000000000030 -3.17499999999999 -146.97300745410377
   vertex 2551.00325944522090 -3.17499999999999 -147.27218859317367
   vertex 2551.00325944522090 -0.00000000000001 -147.27218859317367
  endloop
 endfacet
 facet normal 0.00000000000000 0.00000000000000 -1.00000000000000
  outer loop
   vertex 2578.10000000000040 -3.17499999999999 -146.97300745410348
   vertex 2552.70000000000030 -3.17499999999999 -146.97300745410348
   vertex 2552.70000000000030 -0.00000000000001 -146.97300745410348
  endloop
 endfacet
 facet normal 0.00000000000000 0.00000000000000 -1.00000000000000
  outer loop
   vertex 2552.70000000000030 -0.00000000000001 -146.97300745410348
   vertex 2578.10000000000040 -0.00000000000001 -146.97300745410348
   vertex 2578.10000000000040 -3.17499999999999 -146.97300745410348
  endloop
 endfacet
 facet normal 1.00000000000000 0.00000000000000 -0.00000000000000
  outer loop
   vertex 2578.10000000000040 -0.00000000000001 -146.97300745410348
   vertex 2578.10000000000040 -0.00000000000001 -139.23394495410344
   vertex 2578.10000000000040 -3.17499999999999 -139.23394495410346
  endloop
 endfacet
 facet normal 1.00000000000000 0.00000000000000 0.00000000000000
  outer loop
   vertex 2578.10000000000040 -3.17499999999999 -139.23394495410346
   vertex 2578.10000000000040 -3.17499999999999 -146.97300745410345
   vertex 2578.10000000000040 -0.00000000000001 -146.97300745410348
  endloop
 endfacet
 facet normal 0.00000000000000 1.00000000000000 0.00000000000000
  outer loop
   vertex 2578.10000000000040 -0.00000000000001 -164.63394495410344
   vertex 2527.30000000000020 -0.00000000000001 -164.63394495410344
   vertex 2552.70000000000030 -0.00000000000001 -156.89488245410325
  endloop
 endfacet
 facet normal 0.00000000000000 1.00000000000000 0.00000000000000
  outer loop
   vertex 2527.30000000000020 -0.00000000000001 -164.63394495410344
   vertex 2527.30000000000020 -0.00000000000001 -139.23394495410344
   vertex 2547.81443028779180 -0.00000000000001 -151.07248719770897
  endloop
 endfacet
 facet normal 0.00000000000000 1.00000000000000 0.00000000000000
  outer loop
   vertex 2527.30000000000020 -0.00000000000001 -164.63394495410344
   vertex 2551.00325944522090 -0.00000000000001 -156.59570131503332
   vertex 2552.70000000000030 -0.00000000000001 -156.89488245410325
  endloop
 endfacet
 facet normal 0.00000000000000 1.00000000000000 0.00000000000000
  outer loop
   vertex 2527.30000000000020 -0.00000000000001 -164.63394495410344
   vertex 2548.40370209841420 -0.00000000000001 -154.41441370410345
   vertex 2549.51117084257160 -0.00000000000001 -155.73424355863898
  endloop
 endfacet
 facet normal 0.00000000000000 1.00000000000000 0.00000000000000
  outer loop
   vertex 2547.81443028779180 -0.00000000000001 -151.07248719770897
   vertex 2547.81443028779180 -0.00000000000001 -152.79540271049802
   vertex 2527.30000000000020 -0.00000000000001 -164.63394495410344
  endloop
 endfacet
 facet normal 0.00000000000000 1.00000000000000 0.00000000000000
  outer loop
   vertex 2578.10000000000040 -0.00000000000001 -139.23394495410344
   vertex 2578.10000000000040 -0.00000000000001 -146.97300745410348
   vertex 2552.70000000000030 -0.00000000000001 -146.97300745410377
  endloop
 endfacet
 facet normal 0.00000000000000 1.00000000000000 0.00000000000000
  outer loop
   vertex 2549.51117084257160 -0.00000000000001 -155.73424355863898
   vertex 2551.00325944522090 -0.00000000000001 -156.59570131503332
   vertex 2527.30000000000020 -0.00000000000001 -164.63394495410344
  endloop
 endfacet
 facet normal 0.00000000000000 1.00000000000000 0.00000000000000
  outer loop
   vertex 2527.30000000000020 -0.00000000000001 -139.23394495410344
   vertex 2548.40370209841420 -0.00000000000001 -149.45347620410357
   vertex 2547.81443028779180 -0.00000000000001 -151.07248719770897
  endloop
 endfacet
 facet normal 0.00000000000000 1.00000000000000 0.00000000000000
  outer loop
   vertex 2527.30000000000020 -0.00000000000001 -139.23394495410344
   vertex 2551.00325944522090 -0.00000000000001 -147.27218859317367
   vertex 2549.51117084257160 -0.00000000000001 -148.13364634956804
  endloop
 endfacet
 facet normal 0.00000000000000 1.00000000000000 -0.00000000000000
  outer loop
   vertex 2552.70000000000030 -0.00000000000001 -146.97300745410377
   vertex 2527.30000000000020 -0.00000000000001 -139.23394495410344
   vertex 2578.10000000000040 -0.00000000000001 -139.23394495410344
  endloop
 endfacet
 facet normal 0.00000000000000 1.00000000000000 0.00000000000000
  outer loop
   vertex 2547.81443028779180 -0.00000000000001 -152.79540271049802
   vertex 2548.40370209841420 -0.00000000000001 -154.41441370410345
   vertex 2527.30000000000020 -0.00000000000001 -164.63394495410344
  endloop
 endfacet
 facet normal 0.00000000000000 1.00000000000000 0.00000000000000
  outer loop
   vertex 2552.70000000000030 -0.00000000000001 -146.97300745410377
   vertex 2551.00325944522090 -0.00000000000001 -147.27218859317367
   vertex 2527.30000000000020 -0.00000000000001 -139.23394495410344
  endloop
 endfacet
 facet normal 0.00000000000000 1.00000000000000 0.00000000000000
  outer loop
   vertex 2549.51117084257160 -0.00000000000001 -148.13364634956804
   vertex 2548.40370209841420 -0.00000000000001 -149.45347620410357
   vertex 2527.30000000000020 -0.00000000000001 -139.23394495410344
  endloop
 endfacet
 facet normal 0.00000000000000 1.00000000000000 0.00000000000000
  outer loop
   vertex 2552.70000000000030 -0.00000000000001 -156.89488245410325
   vertex 2578.10000000000040 -0.00000000000001 -156.89488245410340
   vertex 2578.10000000000040 -0.00000000000001 -164.63394495410344
  endloop
 endfacet
 facet normal 1.00000000000000 0.00000000000000 0.00000000000000
  outer loop
   vertex 2527.30000000000020 -0.00000000000001 -164.63394495410344
   vertex 2527.30000000000020 22.22500000000000 -164.63394495410344
   vertex 2527.30000000000020 22.22499999999998 -139.23394495410344
  endloop
 endfacet
 facet normal 1.00000000000000 0.00000000000000 0.00000000000000
  outer loop
   vertex 2527.30000000000020 22.22499999999998 -139.23394495410344
   vertex 2527.30000000000020 -0.00000000000001 -139.23394495410344
   vertex 2527.30000000000020 -0.00000000000001 -164.63394495410344
  endloop
 endfacet
 facet normal 0.00000000000000 1.00000000000000 0.00000000000000
  outer loop
   vertex 2527.30000000000020 22.22500000000000 -139.23394495410346
   vertex 2527.30000000000020 22.22500000000000 -164.63394495410347
   vertex 63.49999999999997 22.22500000000000 -164.63394495410347
  endloop
 endfacet
 facet normal 0.00000000000000 1.00000000000000 0.00000000000000
  outer loop
   vertex 63.49999999999997 22.22500000000000 -164.63394495410347
   vertex 63.49999999999997 22.22500000000000 -139.23394495410346
   vertex 2527.30000000000020 22.22500000000000 -139.23394495410346
  endloop
 endfacet
 facet normal -1.00000000000000 0.00000000000000 0.00000000000000
  outer loop
   vertex 63.49999999999997 0.00000000000001 -139.23394495410344
   vertex 63.49999999999997 22.22500000000000 -139.23394495410344
   vertex 63.49999999999997 22.22500000000000 -164.63394495410344
  endloop
 endfacet
 facet normal -1.00000000000000 0.00000000000000 0.00000000000000
  outer loop
   vertex 63.49999999999997 22.22500000000000 -164.63394495410344
   vertex 63.49999999999997 0.00000000000001 -164.63394495410344
   vertex 63.49999999999997 0.00000000000001 -139.23394495410344
  endloop
 endfacet
 facet normal 0.00000000000000 0.00000000000000 1.00000000000000
  outer loop
   vertex 2527.30000000000020 22.22499999999998 -139.23394495410344
   vertex 1551.93999999999980 -3.17499999999999 -139.23394495410344
   vertex 2065.02000000000000 -3.17499999999999 -139.23394495410344
  endloop
 endfacet
 facet normal 0.00000000000000 0.00000000000000 1.00000000000000
  outer loop
   vertex 2527.30000000000020 22.22499999999998 -139.23394495410344
   vertex 63.49999999999994 22.22500000000000 -139.23394495410344
   vertex 1038.86000000000010 -3.17499999999999 -139.23394495410344
  endloop
 endfacet
 facet normal 0.00000000000000 0.00000000000000 1.00000000000000
  outer loop
   vertex 1038.86000000000010 -3.17499999999999 -139.23394495410344
   vertex 1551.93999999999980 -3.17499999999999 -139.23394495410344
   vertex 2527.30000000000020 22.22499999999998 -139.23394495410344
  endloop
 endfacet
 facet normal 0.00000000000000 0.00000000000000 1.00000000000000
  outer loop
   vertex 63.49999999999994 22.22500000000000 -139.23394495410344
   vertex 63.49999999999994 0.00000000000001 -139.23394495410344
   vertex 525.77999999999997 -3.17499999999999 -139.23394495410344
  endloop
 endfacet
 facet normal 0.00000000000000 -0.00000000000000 1.00000000000000
  outer loop
   vertex 525.77999999999997 -3.17499999999999 -139.23394495410344
   vertex 1038.86000000000010 -3.17499999999999 -139.23394495410344
   vertex 63.49999999999994 22.22500000000000 -139.23394495410344
  endloop
 endfacet
 facet normal 0.00000000000000 -0.00000000000000 1.00000000000000
  outer loop
   vertex 2578.10000000000040 -3.17499999999999 -139.23394495410344
   vertex 2578.10000000000040 -0.00000000000001 -139.23394495410344
   vertex 2527.30000000000020 -0.00000000000001 -139.23394495410344
  endloop
 endfacet
 facet normal 0.00000000000000 0.00000000000000 1.00000000000000
  outer loop
   vertex 12.69999999999993 -3.17499999999999 -139.23394495410344
   vertex 525.77999999999997 -3.17499999999999 -139.23394495410344
   vertex 63.49999999999994 0.00000000000001 -139.23394495410344
  endloop
 endfacet
 facet normal 0.00000000000000 0.00000000000000 1.00000000000000
  outer loop
   vertex 2527.30000000000020 -0.00000000000001 -139.23394495410344
   vertex 2065.02000000000000 -3.17499999999999 -139.23394495410344
   vertex 2578.10000000000040 -3.17499999999999 -139.23394495410344
  endloop
 endfacet
 facet normal 0.00000000000000 0.00000000000000 1.00000000000000
  outer loop
   vertex 2065.02000000000000 -3.17499999999999 -139.23394495410344
   vertex 2527.30000000000020 -0.00000000000001 -139.23394495410344
   vertex 2527.30000000000020 22.22499999999998 -139.23394495410344
  endloop
 endfacet
 facet normal 0.00000000000000 0.00000000000000 1.00000000000000
  outer loop
   vertex 63.49999999999994 0.00000000000001 -139.23394495410344
   vertex 12.69999999999993 -0.00000000000001 -139.23394495410344
   vertex 12.69999999999993 -3.17499999999999 -139.23394495410344
  endloop
 endfacet
 facet normal 0.00000000000000 0.00000000000000 -1.00000000000000
  outer loop
   vertex 63.49999999999994 22.22500000000000 -164.63394495410344
   vertex 1038.86000000000010 -3.17499999999999 -164.63394495410344
   vertex 525.77999999999997 -3.17499999999999 -164.63394495410344
  endloop
 endfacet
 facet normal 0.00000000000000 0.00000000000000 -1.00000000000000
  outer loop
   vertex 63.49999999999994 22.22500000000000 -164.63394495410344
   vertex 2527.30000000000020 22.22500000000000 -164.63394495410344
   vertex 1551.93999999999980 -3.17499999999999 -164.63394495410344
  endloop
 endfacet
 facet normal 0.00000000000000 0.00000000000000 -1.00000000000000
  outer loop
   vertex 1551.93999999999980 -3.17499999999999 -164.63394495410344
   vertex 1038.86000000000010 -3.17499999999999 -164.63394495410344
   vertex 63.49999999999994 22.22500000000000 -164.63394495410344
  endloop
 endfacet
 facet normal 0.00000000000000 -0.00000000000000 -1.00000000000000
  outer loop
   vertex 2527.30000000000020 22.22500000000000 -164.63394495410344
   vertex 2527.30000000000020 -0.00000000000001 -164.63394495410344
   vertex 2065.02000000000000 -3.17499999999999 -164.63394495410344
  endloop
 endfacet
 facet normal 0.00000000000000 0.00000000000000 -1.00000000000000
  outer loop
   vertex 2578.10000000000040 -3.17499999999999 -164.63394495410344
   vertex 2065.02000000000000 -3.17499999999999 -164.63394495410344
   vertex 2527.30000000000020 -0.00000000000001 -164.63394495410344
  endloop
 endfacet
 facet normal 0.00000000000000 0.00000000000000 -1.00000000000000
  outer loop
   vertex 2065.02000000000000 -3.17499999999999 -164.63394495410344
   vertex 1551.93999999999980 -3.17499999999999 -164.63394495410344
   vertex 2527.30000000000020 22.22500000000000 -164.63394495410344
  endloop
 endfacet
 facet normal 0.00000000000000 0.00000000000000 -1.00000000000000
  outer loop
   vertex 525.77999999999997 -3.17499999999999 -164.63394495410344
   vertex 63.49999999999994 0.00000000000001 -164.63394495410344
   vertex 63.49999999999994 22.22500000000000 -164.63394495410344
  endloop
 endfacet
 facet normal 0.00000000000000 0.00000000000000 -1.00000000000000
  outer loop
   vertex 12.69999999999993 -3.17499999999999 -164.63394495410344
   vertex 12.69999999999993 -0.00000000000001 -164.63394495410344
   vertex 63.49999999999994 0.00000000000001 -164.63394495410344
  endloop
 endfacet
 facet normal 0.00000000000000 -0.00000000000000 -1.00000000000000
  outer loop
   vertex 63.49999999999994 0.00000000000001 -164.63394495410344
   vertex 525.77999999999997 -3.17499999999999 -164.63394495410344
   vertex 12.69999999999993 -3.17499999999999 -164.63394495410344
  endloop
 endfacet
 facet normal 0.00000000000000 0.00000000000000 -1.00000000000000
  outer loop
   vertex 2527.30000000000020 -0.00000000000001 -164.63394495410344
   vertex 2578.10000000000040 -0.00000000000001 -164.63394495410344
   vertex 2578.10000000000040 -3.17499999999999 -164.63394495410344
  endloop
 endfacet
 facet normal -1.00000000000000 0.00000000000000 -0.00000000000000
  outer loop
   vertex 12.69999999999995 -0.00000000000001 -139.23394495410344
   vertex 12.69999999999995 -0.00000000000001 -146.97300745410348
   vertex 12.69999999999995 -3.17499999999999 -146.97300745410345
  endloop
 endfacet
 facet normal -1.00000000000000 0.00000000000000 0.00000000000000
  outer loop
   vertex 12.69999999999995 -3.17499999999999 -146.97300745410345
   vertex 12.69999999999995 -3.17499999999999 -139.23394495410346
   vertex 12.69999999999995 -0.00000000000001 -139.23394495410344
  endloop
 endfacet
 facet normal 0.00000000000000 0.00000000000000 -1.00000000000000
  outer loop
   vertex 38.09999999999996 -3.17499999999999 -146.97300745410348
   vertex 12.69999999999995 -3.17499999999999 -146.97300745410348
   vertex 12.69999999999997 -0.00000000000001 -146.97300745410348
  endloop
 endfacet
 facet normal 0.00000000000000 0.00000000000000 -1.00000000000000
  outer loop
   vertex 12.69999999999997 -0.00000000000001 -146.97300745410348
   vertex 38.09999999999995 -0.00000000000001 -146.97300745410348
   vertex 38.09999999999996 -3.17499999999999 -146.97300745410348
  endloop
 endfacet
 facet normal 0.00000000000000 -1.00000000000000 0.00000000000000
  outer loop
   vertex 525.77999999999997 -3.17499999999999 -139.23394495410346
   vertex 525.77999999999997 -3.17499999999999 -164.63394495410347
   vertex 1038.86000000000010 -3.17499999999999 -164.63394495410347
  endloop
 endfacet
 facet normal 0.00000000000000 -1.00000000000000 0.00000000000000
  outer loop
   vertex 1038.86000000000010 -3.17499999999999 -139.23394495410346
   vertex 1038.86000000000010 -3.17499999999999 -164.63394495410347
   vertex 1551.93999999999980 -3.17499999999999 -164.63394495410347
  endloop
 endfacet
 facet normal 0.00000000000000 -1.00000000000000 0.00000000000000
  outer loop
   vertex 1551.93999999999980 -3.17499999999999 -139.23394495410346
   vertex 1551.93999999999980 -3.17499999999999 -164.63394495410347
   vertex 2065.02000000000000 -3.17499999999999 -164.63394495410347
  endloop
 endfacet
 facet normal 0.00000000000000 -1.00000000000000 0.00000000000000
  outer loop
   vertex 2065.02000000000000 -3.17499999999999 -139.23394495410346
   vertex 2549.51117084257160 -3.17499999999999 -148.13364634956801
   vertex 2551.00325944522090 -3.17499999999999 -147.27218859317372
  endloop
 endfacet
 facet normal 0.00000000000000 -1.00000000000000 0.00000000000000
  outer loop
   vertex 2578.10000000000040 -3.17499999999999 -139.23394495410346
   vertex 2551.00325944522090 -3.17499999999999 -147.27218859317372
   vertex 2552.70000000000030 -3.17499999999999 -146.97300745410345
  endloop
 endfacet
 facet normal 0.00000000000000 -1.00000000000000 0.00000000000000
  outer loop
   vertex 2065.02000000000000 -3.17499999999999 -139.23394495410346
   vertex 2548.40370209841420 -3.17499999999999 -149.45347620410357
   vertex 2549.51117084257160 -3.17499999999999 -148.13364634956801
  endloop
 endfacet
 facet normal 0.00000000000000 -1.00000000000000 0.00000000000000
  outer loop
   vertex 2551.00325944522090 -3.17499999999999 -147.27218859317372
   vertex 2578.10000000000040 -3.17499999999999 -139.23394495410346
   vertex 2065.02000000000000 -3.17499999999999 -139.23394495410346
  endloop
 endfacet
 facet normal 0.00000000000000 -1.00000000000000 0.00000000000000
  outer loop
   vertex 2065.02000000000000 -3.17499999999999 -139.23394495410346
   vertex 2548.40370209841420 -3.17499999999999 -154.41441370410345
   vertex 2547.81443028779180 -3.17499999999999 -152.79540271049805
  endloop
 endfacet
 facet normal 0.00000000000000 -1.00000000000000 0.00000000000000
  outer loop
   vertex 2552.70000000000030 -3.17499999999999 -146.97300745410345
   vertex 2578.10000000000040 -3.17499999999999 -146.97300745410345
   vertex 2578.10000000000040 -3.17499999999999 -139.23394495410346
  endloop
 endfacet
 facet normal 0.00000000000000 -1.00000000000000 0.00000000000000
  outer loop
   vertex 2547.81443028779180 -3.17499999999999 -152.79540271049805
   vertex 2547.81443028779180 -3.17499999999999 -151.07248719770897
   vertex 2065.02000000000000 -3.17499999999999 -139.23394495410346
  endloop
 endfacet
 facet normal 0.00000000000000 -1.00000000000000 0.00000000000000
  outer loop
   vertex 2547.81443028779180 -3.17499999999999 -151.07248719770897
   vertex 2548.40370209841420 -3.17499999999999 -149.45347620410357
   vertex 2065.02000000000000 -3.17499999999999 -139.23394495410346
  endloop
 endfacet
 facet normal 0.00000000000000 -1.00000000000000 0.00000000000000
  outer loop
   vertex 2065.02000000000000 -3.17499999999999 -164.63394495410347
   vertex 2551.00325944522090 -3.17499999999999 -156.59570131503335
   vertex 2549.51117084257160 -3.17499999999999 -155.73424355863898
  endloop
 endfacet
 facet normal -0.00000000000000 -1.00000000000000 0.00000000000000
  outer loop
   vertex 2549.51117084257160 -3.17499999999999 -155.73424355863898
   vertex 2065.02000000000000 -3.17499999999999 -139.23394495410346
   vertex 2065.02000000000000 -3.17499999999999 -164.63394495410347
  endloop
 endfacet
 facet normal 0.00000000000000 -1.00000000000000 0.00000000000000
  outer loop
   vertex 2549.51117084257160 -3.17499999999999 -155.73424355863898
   vertex 2548.40370209841420 -3.17499999999999 -154.41441370410345
   vertex 2065.02000000000000 -3.17499999999999 -139.23394495410346
  endloop
 endfacet
 facet normal 0.00000000000000 -1.00000000000000 0.00000000000000
  outer loop
   vertex 2065.02000000000000 -3.17499999999999 -164.63394495410347
   vertex 2578.10000000000040 -3.17499999999999 -164.63394495410347
   vertex 2552.70000000000030 -3.17499999999999 -156.89488245410323
  endloop
 endfacet
 facet normal 0.00000000000000 -1.00000000000000 0.00000000000000
  outer loop
   vertex 2578.10000000000040 -3.17499999999999 -164.63394495410347
   vertex 2578.10000000000040 -3.17499999999999 -156.89488245410337
   vertex 2552.70000000000030 -3.17499999999999 -156.89488245410323
  endloop
 endfacet
 facet normal -0.00000000000000 -1.00000000000000 0.00000000000000
  outer loop
   vertex 2552.70000000000030 -3.17499999999999 -156.89488245410323
   vertex 2551.00325944522090 -3.17499999999999 -156.59570131503335
   vertex 2065.02000000000000 -3.17499999999999 -164.63394495410347
  endloop
 endfacet
 facet normal 0.00000000000000 -1.00000000000000 0.00000000000000
  outer loop
   vertex 525.77999999999997 -3.17499999999999 -164.63394495410347
   vertex 42.39629790158680 -3.17499999999999 -149.45347620410348
   vertex 42.98556971220893 -3.17499999999999 -151.07248719770897
  endloop
 endfacet
 facet normal 0.00000000000000 -1.00000000000000 0.00000000000000
  outer loop
   vertex 42.98556971220893 -3.17499999999999 -151.07248719770897
   vertex 42.98556971220893 -3.17499999999999 -152.79540271049805
   vertex 525.77999999999997 -3.17499999999999 -164.63394495410347
  endloop
 endfacet
 facet normal 0.00000000000000 -1.00000000000000 -0.00000000000000
  outer loop
   vertex 42.98556971220893 -3.17499999999999 -152.79540271049805
   vertex 42.39629790158680 -3.17499999999999 -154.41441370410354
   vertex 525.77999999999997 -3.17499999999999 -164.63394495410347
  endloop
 endfacet
 facet normal 0.00000000000000 -1.00000000000000 0.00000000000000
  outer loop
   vertex 525.77999999999997 -3.17499999999999 -139.23394495410346
   vertex 41.28882915742926 -3.17499999999999 -148.13364634956795
   vertex 42.39629790158680 -3.17499999999999 -149.45347620410348
  endloop
 endfacet
 facet normal -0.00000000000000 -1.00000000000000 0.00000000000000
  outer loop
   vertex 525.77999999999997 -3.17499999999999 -139.23394495410346
   vertex 12.69999999999995 -3.17499999999999 -139.23394495410346
   vertex 38.09999999999996 -3.17499999999999 -146.97300745410351
  endloop
 endfacet
 facet normal 0.00000000000000 -1.00000000000000 0.00000000000000
  outer loop
   vertex 42.39629790158680 -3.17499999999999 -149.45347620410348
   vertex 525.77999999999997 -3.17499999999999 -164.63394495410347
   vertex 525.77999999999997 -3.17499999999999 -139.23394495410346
  endloop
 endfacet
 facet normal 0.00000000000000 -1.00000000000000 -0.00000000000000
  outer loop
   vertex 42.39629790158680 -3.17499999999999 -154.41441370410354
   vertex 41.28882915742926 -3.17499999999999 -155.73424355863906
   vertex 525.77999999999997 -3.17499999999999 -164.63394495410347
  endloop
 endfacet
 facet normal 0.00000000000000 -1.00000000000000 0.00000000000000
  outer loop
   vertex 12.69999999999995 -3.17499999999999 -139.23394495410346
   vertex 12.69999999999995 -3.17499999999999 -146.97300745410345
   vertex 38.09999999999996 -3.17499999999999 -146.97300745410351
  endloop
 endfacet
 facet normal 0.00000000000000 -1.00000000000000 0.00000000000000
  outer loop
   vertex 525.77999999999997 -3.17499999999999 -164.63394495410347
   vertex 39.79674055477963 -3.17499999999999 -156.59570131503358
   vertex 38.09999999999996 -3.17499999999999 -156.89488245410337
  endloop
 endfacet
 facet normal 0.00000000000000 -1.00000000000000 0.00000000000000
  outer loop
   vertex 38.09999999999996 -3.17499999999999 -146.97300745410351
   vertex 39.79674055477963 -3.17499999999999 -147.27218859317344
   vertex 525.77999999999997 -3.17499999999999 -139.23394495410346
  endloop
 endfacet
 facet normal 0.00000000000000 -1.00000000000000 -0.00000000000000
  outer loop
   vertex 38.09999999999996 -3.17499999999999 -156.89488245410337
   vertex 12.69999999999995 -3.17499999999999 -164.63394495410347
   vertex 525.77999999999997 -3.17499999999999 -164.63394495410347
  endloop
 endfacet
 facet normal 0.00000000000000 -1.00000000000000 0.00000000000000
  outer loop
   vertex 39.79674055477963 -3.17499999999999 -147.27218859317344
   vertex 41.28882915742926 -3.17499999999999 -148.13364634956795
   vertex 525.77999999999997 -3.17499999999999 -139.23394495410346
  endloop
 endfacet
 facet normal 0.00000000000000 -1.00000000000000 -0.00000000000000
  outer loop
   vertex 41.28882915742926 -3.17499999999999 -155.73424355863906
   vertex 39.79674055477963 -3.17499999999999 -156.59570131503358
   vertex 525.77999999999997 -3.17499999999999 -164.63394495410347
  endloop
 endfacet
 facet normal -0.00000000000000 -1.00000000000000 0.00000000000000
  outer loop
   vertex 38.09999999999996 -3.17499999999999 -156.89488245410337
   vertex 12.69999999999995 -3.17499999999999 -156.89488245410337
   vertex 12.69999999999995 -3.17499999999999 -164.63394495410347
  endloop
 endfacet
 facet normal 0.00000000000000 -1.00000000000000 0.00000000000000
  outer loop
   vertex 2065.02000000000000 -3.17499999999999 -164.63394495410347
   vertex 2065.02000000000000 -3.17499999999999 -139.23394495410346
   vertex 1551.93999999999980 -3.17499999999999 -139.23394495410346
  endloop
 endfacet
 facet normal 0.00000000000000 -1.00000000000000 0.00000000000000
  outer loop
   vertex 1551.93999999999980 -3.17499999999999 -164.63394495410347
   vertex 1551.93999999999980 -3.17499999999999 -139.23394495410346
   vertex 1038.86000000000010 -3.17499999999999 -139.23394495410346
  endloop
 endfacet
 facet normal 0.00000000000000 -1.00000000000000 0.00000000000000
  outer loop
   vertex 1038.86000000000010 -3.17499999999999 -164.63394495410347
   vertex 1038.86000000000010 -3.17499999999999 -139.23394495410346
   vertex 525.77999999999997 -3.17499999999999 -139.23394495410346
  endloop
 endfacet
 facet normal 0.00000000000000 1.00000000000000 0.00000000000000
  outer loop
   vertex 63.49999999999997 -0.00000000000001 -164.63394495410344
   vertex 42.98556971220893 -0.00000000000001 -152.79540271049802
   vertex 42.98556971220893 -0.00000000000001 -151.07248719770897
  endloop
 endfacet
 facet normal 0.00000000000000 1.00000000000000 0.00000000000000
  outer loop
   vertex 12.69999999999997 -0.00000000000001 -164.63394495410344
   vertex 12.69999999999997 -0.00000000000001 -156.89488245410340
   vertex 38.09999999999995 -0.00000000000001 -156.89488245410351
  endloop
 endfacet
 facet normal -0.00000000000000 1.00000000000000 0.00000000000000
  outer loop
   vertex 42.98556971220893 -0.00000000000001 -151.07248719770897
   vertex 63.49999999999997 -0.00000000000001 -139.23394495410344
   vertex 63.49999999999997 -0.00000000000001 -164.63394495410344
  endloop
 endfacet
 facet normal 0.00000000000000 1.00000000000000 0.00000000000000
  outer loop
   vertex 38.09999999999995 -0.00000000000001 -156.89488245410351
   vertex 63.49999999999997 -0.00000000000001 -164.63394495410344
   vertex 12.69999999999997 -0.00000000000001 -164.63394495410344
  endloop
 endfacet
 facet normal 0.00000000000000 1.00000000000000 0.00000000000000
  outer loop
   vertex 63.49999999999997 -0.00000000000001 -139.23394495410344
   vertex 42.39629790158680 -0.00000000000001 -149.45347620410351
   vertex 41.28882915742926 -0.00000000000001 -148.13364634956795
  endloop
 endfacet
 facet normal 0.00000000000000 1.00000000000000 0.00000000000000
  outer loop
   vertex 63.49999999999997 -0.00000000000001 -164.63394495410344
   vertex 42.39629790158680 -0.00000000000001 -154.41441370410351
   vertex 42.98556971220893 -0.00000000000001 -152.79540271049802
  endloop
 endfacet
 facet normal -0.00000000000000 1.00000000000000 0.00000000000000
  outer loop
   vertex 38.09999999999995 -0.00000000000001 -156.89488245410351
   vertex 39.79674055477963 -0.00000000000001 -156.59570131503358
   vertex 63.49999999999997 -0.00000000000001 -164.63394495410344
  endloop
 endfacet
 facet normal -0.00000000000000 1.00000000000000 0.00000000000000
  outer loop
   vertex 12.69999999999997 -0.00000000000001 -139.23394495410344
   vertex 63.49999999999997 -0.00000000000001 -139.23394495410344
   vertex 38.09999999999995 -0.00000000000001 -146.97300745410354
  endloop
 endfacet
 facet normal 0.00000000000000 1.00000000000000 -0.00000000000000
  outer loop
   vertex 42.98556971220893 -0.00000000000001 -151.07248719770897
   vertex 42.39629790158680 -0.00000000000001 -149.45347620410351
   vertex 63.49999999999997 -0.00000000000001 -139.23394495410344
  endloop
 endfacet
 facet normal -0.00000000000000 1.00000000000000 0.00000000000000
  outer loop
   vertex 39.79674055477963 -0.00000000000001 -156.59570131503358
   vertex 41.28882915742926 -0.00000000000001 -155.73424355863904
   vertex 63.49999999999997 -0.00000000000001 -164.63394495410344
  endloop
 endfacet
 facet normal 0.00000000000000 1.00000000000000 0.00000000000000
  outer loop
   vertex 63.49999999999997 -0.00000000000001 -139.23394495410344
   vertex 39.79674055477963 -0.00000000000001 -147.27218859317344
   vertex 38.09999999999995 -0.00000000000001 -146.97300745410354
  endloop
 endfacet
 facet normal -0.00000000000000 1.00000000000000 0.00000000000000
  outer loop
   vertex 41.28882915742926 -0.00000000000001 -155.73424355863904
   vertex 42.39629790158680 -0.00000000000001 -154.41441370410351
   vertex 63.49999999999997 -0.00000000000001 -164.63394495410344
  endloop
 endfacet
 facet normal 0.00000000000000 1.00000000000000 -0.00000000000000
  outer loop
   vertex 41.28882915742926 -0.00000000000001 -148.13364634956795
   vertex 39.79674055477963 -0.00000000000001 -147.27218859317344
   vertex 63.49999999999997 -0.00000000000001 -139.23394495410344
  endloop
 endfacet
 facet normal 0.00000000000000 1.00000000000000 0.00000000000000
  outer loop
   vertex 38.09999999999995 -0.00000000000001 -146.97300745410354
   vertex 12.69999999999997 -0.00000000000001 -146.97300745410348
   vertex 12.69999999999997 -0.00000000000001 -139.23394495410344
  endloop
 endfacet
 facet normal -0.17364817766694 -0.00000000000000 0.98480775301221
  outer loop
   vertex 39.79674055477963 -0.00000000000001 -156.59570131503358
   vertex 38.09999999999995 -0.00000000000001 -156.89488245410351
   vertex 38.09999999999995 -3.17499999999999 -156.89488245410351
  endloop
 endfacet
 facet normal -0.50000000000000 -0.00000000000000 0.86602540378444
  outer loop
   vertex 41.28882915742926 -0.00000000000001 -155.73424355863904
   vertex 39.79674055477963 -0.00000000000001 -156.59570131503358
   vertex 39.79674055477963 -3.17499999999999 -156.59570131503358
  endloop
 endfacet
 facet normal -0.76604444311897 0.00000000000000 0.64278760968654
  outer loop
   vertex 42.39629790158680 -0.00000000000001 -154.41441370410351
   vertex 41.28882915742926 -0.00000000000001 -155.73424355863904
   vertex 41.28882915742926 -3.17499999999999 -155.73424355863904
  endloop
 endfacet
 facet normal -0.93969262078591 -0.00000000000000 0.34202014332566
  outer loop
   vertex 42.98556971220893 -0.00000000000001 -152.79540271049802
   vertex 42.39629790158680 -0.00000000000001 -154.41441370410351
   vertex 42.39629790158680 -3.17499999999999 -154.41441370410351
  endloop
 endfacet
 facet normal -1.00000000000000 0.00000000000000 -0.00000000000000
  outer loop
   vertex 42.98556971220893 -0.00000000000001 -151.07248719770897
   vertex 42.98556971220893 -0.00000000000001 -152.79540271049802
   vertex 42.98556971220893 -3.17499999999999 -152.79540271049802
  endloop
 endfacet
 facet normal -0.93969262078591 0.00000000000000 -0.34202014332567
  outer loop
   vertex 42.39629790158680 -0.00000000000001 -149.45347620410351
   vertex 42.98556971220893 -0.00000000000001 -151.07248719770897
   vertex 42.98556971220893 -3.17499999999999 -151.07248719770897
  endloop
 endfacet
 facet normal -0.76604444311898 0.00000000000000 -0.64278760968654
  outer loop
   vertex 41.28882915742926 -0.00000000000001 -148.13364634956795
   vertex 42.39629790158680 -0.00000000000001 -149.45347620410351
   vertex 42.39629790158680 -3.17499999999999 -149.45347620410351
  endloop
 endfacet
 facet normal -0.49999999999999 0.00000000000000 -0.86602540378444
  outer loop
   vertex 39.79674055477963 -0.00000000000001 -147.27218859317344
   vertex 41.28882915742926 -0.00000000000001 -148.13364634956795
   vertex 41.28882915742926 -3.17499999999999 -148.13364634956795
  endloop
 endfacet
 facet normal -0.17364817766693 -0.00000000000000 -0.98480775301221
  outer loop
   vertex 38.09999999999995 -0.00000000000001 -146.97300745410354
   vertex 39.79674055477963 -0.00000000000001 -147.27218859317344
   vertex 39.79674055477963 -3.17499999999999 -147.27218859317344
  endloop
 endfacet
 facet normal -0.17364817766693 -0.00000000000000 -0.98480775301221
  outer loop
   vertex 39.79674055477963 -3.17499999999999 -147.27218859317344
   vertex 38.09999999999995 -3.17499999999999 -146.97300745410354
   vertex 38.09999999999995 -0.00000000000001 -146.97300745410354
  endloop
 endfacet
 facet normal -0.49999999999999 0.00000000000000 -0.86602540378444
  outer loop
   vertex 41.28882915742926 -3.17499999999999 -148.13364634956795
   vertex 39.79674055477963 -3.17499999999999 -147.27218859317344
   vertex 39.79674055477963 -0.00000000000001 -147.27218859317344
  endloop
 endfacet
 facet normal -0.76604444311898 0.00000000000000 -0.64278760968654
  outer loop
   vertex 42.39629790158680 -3.17499999999999 -149.45347620410351
   vertex 41.28882915742926 -3.17499999999999 -148.13364634956795
   vertex 41.28882915742926 -0.00000000000001 -148.13364634956795
  endloop
 endfacet
 facet normal -0.93969262078591 0.00000000000000 -0.34202014332567
  outer loop
   vertex 42.98556971220893 -3.17499999999999 -151.07248719770897
   vertex 42.39629790158680 -3.17499999999999 -149.45347620410351
   vertex 42.39629790158680 -0.00000000000001 -149.45347620410351
  endloop
 endfacet
 facet normal -1.00000000000000 0.00000000000000 0.00000000000000
  outer loop
   vertex 42.98556971220893 -3.17499999999999 -152.79540271049802
   vertex 42.98556971220893 -3.17499999999999 -151.07248719770897
   vertex 42.98556971220893 -0.00000000000001 -151.07248719770897
  endloop
 endfacet
 facet normal -0.93969262078591 -0.00000000000000 0.34202014332566
  outer loop
   vertex 42.39629790158680 -3.17499999999999 -154.41441370410351
   vertex 42.98556971220893 -3.17499999999999 -152.79540271049802
   vertex 42.98556971220893 -0.00000000000001 -152.79540271049802
  endloop
 endfacet
 facet normal -0.76604444311897 0.00000000000000 0.64278760968654
  outer loop
   vertex 41.28882915742926 -3.17499999999999 -155.73424355863904
   vertex 42.39629790158680 -3.17499999999999 -154.41441370410351
   vertex 42.39629790158680 -0.00000000000001 -154.41441370410351
  endloop
 endfacet
 facet normal -0.50000000000000 -0.00000000000000 0.86602540378444
  outer loop
   vertex 39.79674055477963 -3.17499999999999 -156.59570131503358
   vertex 41.28882915742926 -3.17499999999999 -155.73424355863904
   vertex 41.28882915742926 -0.00000000000001 -155.73424355863904
  endloop
 endfacet
 facet normal -0.17364817766694 -0.00000000000000 0.98480775301221
  outer loop
   vertex 38.09999999999995 -3.17499999999999 -156.89488245410351
   vertex 39.79674055477963 -3.17499999999999 -156.59570131503358
   vertex 39.79674055477963 -0.00000000000001 -156.59570131503358
  endloop
 endfacet
 facet normal 0.00000000000000 0.00000000000000 1.00000000000000
  outer loop
   vertex 38.09999999999996 -3.17499999999999 -156.89488245410340
   vertex 38.09999999999995 -0.00000000000001 -156.89488245410340
   vertex 12.69999999999997 -0.00000000000001 -156.89488245410340
  endloop
 endfacet
 facet normal 0.00000000000000 0.00000000000000 1.00000000000000
  outer loop
   vertex 12.69999999999997 -0.00000000000001 -156.89488245410340
   vertex 12.69999999999995 -3.17499999999999 -156.89488245410340
   vertex 38.09999999999996 -3.17499999999999 -156.89488245410340
  endloop
 endfacet
 facet normal -1.00000000000000 0.00000000000000 0.00000000000000
  outer loop
   vertex 12.69999999999996 -3.17499999999999 -164.63394495410347
   vertex 12.69999999999996 -3.17499999999999 -156.89488245410337
   vertex 12.69999999999996 -0.00000000000001 -156.89488245410340
  endloop
 endfacet
 facet normal -1.00000000000000 0.00000000000000 -0.00000000000000
  outer loop
   vertex 12.69999999999996 -0.00000000000001 -156.89488245410340
   vertex 12.69999999999996 -0.00000000000001 -164.63394495410344
   vertex 12.69999999999996 -3.17499999999999 -164.63394495410347
  endloop
 endfacet
endsolid STL file created by Vectorworks 2017 SP5 (Build 402127) (64-Bit)
